<svg width="40" height="40" viewBox="0 0 40 40" fill="none" xmlns="http://www.w3.org/2000/svg">
<path d="M0 6.88172C0 3.08105 3.08105 0 6.88172 0H33.1183C36.9189 0 40 3.08105 40 6.88172V33.1183C40 36.9189 36.9189 40 33.1183 40H6.88172C3.08105 40 0 36.9189 0 33.1183V6.88172Z" fill="url(#paint0_linear_45_414)"/>
<path d="M32.0002 20C32.0002 26.6274 26.6277 32 20.0002 32C13.3728 32 8.00024 26.6274 8.00024 20C8.00024 13.3726 13.3728 8.00002 20.0002 8.00002C26.6277 8.00002 32.0002 13.3726 32.0002 20Z" fill="url(#paint1_linear_45_414)"/>
<defs>
<linearGradient id="paint0_linear_45_414" x1="20" y1="0" x2="20" y2="40" gradientUnits="userSpaceOnUse">
<stop stop-color="#9FA8DA"/>
<stop offset="1" stop-color="#5C6BC0"/>
</linearGradient>
<linearGradient id="paint1_linear_45_414" x1="11.0962" y1="12.3343" x2="28.1237" y2="31.2194" gradientUnits="userSpaceOnUse">
<stop stop-color="#FFEE58"/>
<stop offset="1" stop-color="#FBC02D"/>
</linearGradient>
</defs>
</svg>
